<mxfile host="app.diagrams.net" agent="Mozilla/5.0 (Windows NT 10.0; Win64; x64) AppleWebKit/537.36 (KHTML, like Gecko) Chrome/135.0.0.0 Safari/537.36" version="26.2.14">
  <diagram name="Data Flow" id="qsl-yLtg4liw6EHXuBID">
    <mxGraphModel dx="2825" dy="1036" grid="1" gridSize="10" guides="1" tooltips="1" connect="1" arrows="1" fold="1" page="1" pageScale="1" pageWidth="1920" pageHeight="1200" math="0" shadow="0">
      <root>
        <mxCell id="PmAsDYt7ePFWswJWPdAt-0" />
        <mxCell id="PmAsDYt7ePFWswJWPdAt-1" parent="PmAsDYt7ePFWswJWPdAt-0" />
        <mxCell id="N5Wro9hiEPlnRRx0mENQ-124" value="&lt;font style=&quot;&quot;&gt;&lt;b&gt;Data Flow &lt;/b&gt;&lt;font style=&quot;font-size: 20px;&quot;&gt;(data Lineage)&lt;/font&gt;&lt;br style=&quot;font-size: 38px;&quot;&gt;&lt;/font&gt;" style="text;html=1;strokeColor=none;fillColor=none;align=left;verticalAlign=middle;whiteSpace=wrap;rounded=0;fontSize=38;fontFamily=Helvetica;" parent="PmAsDYt7ePFWswJWPdAt-1" vertex="1">
          <mxGeometry x="69" y="47" width="396" height="54" as="geometry" />
        </mxCell>
        <mxCell id="n8bJTZ1ovyGtcUzWuUE2-2" value="" style="rounded=0;whiteSpace=wrap;html=1;fillColor=none;dashed=1;" parent="PmAsDYt7ePFWswJWPdAt-1" vertex="1">
          <mxGeometry x="390" y="280" width="200" height="690" as="geometry" />
        </mxCell>
        <mxCell id="n8bJTZ1ovyGtcUzWuUE2-3" value="&lt;font style=&quot;font-size: 24px;&quot;&gt;Sources&lt;/font&gt;" style="rounded=1;whiteSpace=wrap;html=1;strokeColor=none;" parent="PmAsDYt7ePFWswJWPdAt-1" vertex="1">
          <mxGeometry x="430" y="260" width="120" height="40" as="geometry" />
        </mxCell>
        <mxCell id="4ZKNdrfmacIxx5nxEuMF-0" value="&lt;font style=&quot;font-size: 20px;&quot;&gt;&lt;b&gt;CRM&lt;/b&gt;&lt;/font&gt;" style="image;aspect=fixed;html=1;points=[];align=center;fontSize=12;image=img/lib/azure2/general/Folder_Blank.svg;" parent="PmAsDYt7ePFWswJWPdAt-1" vertex="1">
          <mxGeometry x="455.5" y="373" width="69" height="56.00000000000001" as="geometry" />
        </mxCell>
        <mxCell id="FUw0geXapkJR7pa8jdJL-6" style="edgeStyle=elbowEdgeStyle;rounded=0;orthogonalLoop=1;jettySize=auto;html=1;entryX=0;entryY=0.5;entryDx=0;entryDy=0;" parent="PmAsDYt7ePFWswJWPdAt-1" source="4ZKNdrfmacIxx5nxEuMF-4" target="D8R9sGTT4eO_Y8YIvJOX-6" edge="1">
          <mxGeometry relative="1" as="geometry" />
        </mxCell>
        <mxCell id="4ZKNdrfmacIxx5nxEuMF-5" value="" style="rounded=1;whiteSpace=wrap;html=1;fillColor=#ffe6cc;strokeColor=#d79b00;fillStyle=hatch;arcSize=5;" parent="PmAsDYt7ePFWswJWPdAt-1" vertex="1">
          <mxGeometry x="673" y="340" width="247" height="630" as="geometry" />
        </mxCell>
        <mxCell id="4ZKNdrfmacIxx5nxEuMF-6" value="Bronze Layer" style="rounded=1;whiteSpace=wrap;html=1;fillColor=#ffe6cc;strokeColor=#d79b00;fontSize=20;fontStyle=1" parent="PmAsDYt7ePFWswJWPdAt-1" vertex="1">
          <mxGeometry x="673" y="280" width="247" height="50" as="geometry" />
        </mxCell>
        <mxCell id="ipXMxgDdtrbWBfYmq0OY-11" style="edgeStyle=orthogonalEdgeStyle;rounded=0;orthogonalLoop=1;jettySize=auto;html=1;exitX=1;exitY=0.5;exitDx=0;exitDy=0;entryX=0;entryY=0.5;entryDx=0;entryDy=0;" parent="PmAsDYt7ePFWswJWPdAt-1" source="5szykNnx05lKGsdo6Biz-0" target="ipXMxgDdtrbWBfYmq0OY-2" edge="1">
          <mxGeometry relative="1" as="geometry" />
        </mxCell>
        <mxCell id="5szykNnx05lKGsdo6Biz-0" value="crm_sales_orders" style="rounded=1;whiteSpace=wrap;html=1;fillColor=#ffe6cc;strokeColor=#d79b00;fontSize=16;fontStyle=0" parent="PmAsDYt7ePFWswJWPdAt-1" vertex="1">
          <mxGeometry x="691.5" y="381" width="210" height="40" as="geometry" />
        </mxCell>
        <mxCell id="ipXMxgDdtrbWBfYmq0OY-12" style="edgeStyle=orthogonalEdgeStyle;rounded=0;orthogonalLoop=1;jettySize=auto;html=1;exitX=1;exitY=0.5;exitDx=0;exitDy=0;entryX=0;entryY=0.5;entryDx=0;entryDy=0;" parent="PmAsDYt7ePFWswJWPdAt-1" source="hnOc7kBfibrwKYlpnwC0-0" target="ipXMxgDdtrbWBfYmq0OY-3" edge="1">
          <mxGeometry relative="1" as="geometry" />
        </mxCell>
        <mxCell id="hnOc7kBfibrwKYlpnwC0-0" value="erp_addresses" style="rounded=1;whiteSpace=wrap;html=1;fillColor=#ffe6cc;strokeColor=#d79b00;fontSize=16;fontStyle=0" parent="PmAsDYt7ePFWswJWPdAt-1" vertex="1">
          <mxGeometry x="690" y="463" width="210" height="40" as="geometry" />
        </mxCell>
        <mxCell id="ipXMxgDdtrbWBfYmq0OY-13" style="edgeStyle=orthogonalEdgeStyle;rounded=0;orthogonalLoop=1;jettySize=auto;html=1;exitX=1;exitY=0.5;exitDx=0;exitDy=0;entryX=0;entryY=0.5;entryDx=0;entryDy=0;" parent="PmAsDYt7ePFWswJWPdAt-1" source="hnOc7kBfibrwKYlpnwC0-1" target="ipXMxgDdtrbWBfYmq0OY-4" edge="1">
          <mxGeometry relative="1" as="geometry" />
        </mxCell>
        <mxCell id="hnOc7kBfibrwKYlpnwC0-1" value="erp_business_partners" style="rounded=1;whiteSpace=wrap;html=1;fillColor=#ffe6cc;strokeColor=#d79b00;fontSize=16;fontStyle=0" parent="PmAsDYt7ePFWswJWPdAt-1" vertex="1">
          <mxGeometry x="690" y="523" width="210" height="40" as="geometry" />
        </mxCell>
        <mxCell id="ipXMxgDdtrbWBfYmq0OY-14" style="edgeStyle=orthogonalEdgeStyle;rounded=0;orthogonalLoop=1;jettySize=auto;html=1;exitX=1;exitY=0.5;exitDx=0;exitDy=0;entryX=0;entryY=0.5;entryDx=0;entryDy=0;" parent="PmAsDYt7ePFWswJWPdAt-1" source="D8R9sGTT4eO_Y8YIvJOX-6" target="ipXMxgDdtrbWBfYmq0OY-5" edge="1">
          <mxGeometry relative="1" as="geometry" />
        </mxCell>
        <mxCell id="D8R9sGTT4eO_Y8YIvJOX-6" value="erp_employees" style="rounded=1;whiteSpace=wrap;html=1;fillColor=#ffe6cc;strokeColor=#d79b00;fontSize=16;fontStyle=0" parent="PmAsDYt7ePFWswJWPdAt-1" vertex="1">
          <mxGeometry x="690" y="583" width="210" height="40" as="geometry" />
        </mxCell>
        <mxCell id="ipXMxgDdtrbWBfYmq0OY-15" style="edgeStyle=orthogonalEdgeStyle;rounded=0;orthogonalLoop=1;jettySize=auto;html=1;exitX=1;exitY=0.5;exitDx=0;exitDy=0;entryX=0;entryY=0.5;entryDx=0;entryDy=0;" parent="PmAsDYt7ePFWswJWPdAt-1" source="D8R9sGTT4eO_Y8YIvJOX-7" target="ipXMxgDdtrbWBfYmq0OY-6" edge="1">
          <mxGeometry relative="1" as="geometry" />
        </mxCell>
        <mxCell id="D8R9sGTT4eO_Y8YIvJOX-7" value="erp_product_categories" style="rounded=1;whiteSpace=wrap;html=1;fillColor=#ffe6cc;strokeColor=#d79b00;fontSize=16;fontStyle=0" parent="PmAsDYt7ePFWswJWPdAt-1" vertex="1">
          <mxGeometry x="690" y="643" width="210" height="40" as="geometry" />
        </mxCell>
        <mxCell id="ipXMxgDdtrbWBfYmq0OY-16" style="edgeStyle=orthogonalEdgeStyle;rounded=0;orthogonalLoop=1;jettySize=auto;html=1;exitX=1;exitY=0.5;exitDx=0;exitDy=0;entryX=0;entryY=0.5;entryDx=0;entryDy=0;" parent="PmAsDYt7ePFWswJWPdAt-1" source="D8R9sGTT4eO_Y8YIvJOX-8" target="ipXMxgDdtrbWBfYmq0OY-7" edge="1">
          <mxGeometry relative="1" as="geometry" />
        </mxCell>
        <mxCell id="D8R9sGTT4eO_Y8YIvJOX-8" value="erp_product_category_text" style="rounded=1;whiteSpace=wrap;html=1;fillColor=#ffe6cc;strokeColor=#d79b00;fontSize=16;fontStyle=0" parent="PmAsDYt7ePFWswJWPdAt-1" vertex="1">
          <mxGeometry x="690" y="705" width="210" height="40" as="geometry" />
        </mxCell>
        <mxCell id="ipXMxgDdtrbWBfYmq0OY-17" style="edgeStyle=orthogonalEdgeStyle;rounded=0;orthogonalLoop=1;jettySize=auto;html=1;exitX=1;exitY=0.5;exitDx=0;exitDy=0;entryX=0;entryY=0.5;entryDx=0;entryDy=0;" parent="PmAsDYt7ePFWswJWPdAt-1" source="FUw0geXapkJR7pa8jdJL-3" target="ipXMxgDdtrbWBfYmq0OY-8" edge="1">
          <mxGeometry relative="1" as="geometry" />
        </mxCell>
        <mxCell id="FUw0geXapkJR7pa8jdJL-3" value="erp_product_texts" style="rounded=1;whiteSpace=wrap;html=1;fillColor=#ffe6cc;strokeColor=#d79b00;fontSize=16;fontStyle=0" parent="PmAsDYt7ePFWswJWPdAt-1" vertex="1">
          <mxGeometry x="690" y="763" width="210" height="40" as="geometry" />
        </mxCell>
        <mxCell id="ipXMxgDdtrbWBfYmq0OY-18" style="edgeStyle=orthogonalEdgeStyle;rounded=0;orthogonalLoop=1;jettySize=auto;html=1;exitX=1;exitY=0.5;exitDx=0;exitDy=0;entryX=0;entryY=0.5;entryDx=0;entryDy=0;" parent="PmAsDYt7ePFWswJWPdAt-1" source="FUw0geXapkJR7pa8jdJL-4" target="ipXMxgDdtrbWBfYmq0OY-9" edge="1">
          <mxGeometry relative="1" as="geometry" />
        </mxCell>
        <mxCell id="FUw0geXapkJR7pa8jdJL-4" value="erp_products" style="rounded=1;whiteSpace=wrap;html=1;fillColor=#ffe6cc;strokeColor=#d79b00;fontSize=16;fontStyle=0" parent="PmAsDYt7ePFWswJWPdAt-1" vertex="1">
          <mxGeometry x="690" y="823" width="210" height="40" as="geometry" />
        </mxCell>
        <mxCell id="ipXMxgDdtrbWBfYmq0OY-19" style="edgeStyle=orthogonalEdgeStyle;rounded=0;orthogonalLoop=1;jettySize=auto;html=1;exitX=1;exitY=0.5;exitDx=0;exitDy=0;entryX=0;entryY=0.5;entryDx=0;entryDy=0;" parent="PmAsDYt7ePFWswJWPdAt-1" source="FUw0geXapkJR7pa8jdJL-5" target="ipXMxgDdtrbWBfYmq0OY-10" edge="1">
          <mxGeometry relative="1" as="geometry" />
        </mxCell>
        <mxCell id="FUw0geXapkJR7pa8jdJL-5" value="erp_sales_order_items" style="rounded=1;whiteSpace=wrap;html=1;fillColor=#ffe6cc;strokeColor=#d79b00;fontSize=16;fontStyle=0" parent="PmAsDYt7ePFWswJWPdAt-1" vertex="1">
          <mxGeometry x="690" y="883" width="210" height="40" as="geometry" />
        </mxCell>
        <mxCell id="4WKVuVULbujf4S4X61hi-0" style="edgeStyle=orthogonalEdgeStyle;rounded=0;orthogonalLoop=1;jettySize=auto;html=1;entryX=0;entryY=0.5;entryDx=0;entryDy=0;exitX=0.964;exitY=0.496;exitDx=0;exitDy=0;exitPerimeter=0;" parent="PmAsDYt7ePFWswJWPdAt-1" source="4ZKNdrfmacIxx5nxEuMF-4" target="hnOc7kBfibrwKYlpnwC0-1" edge="1">
          <mxGeometry relative="1" as="geometry">
            <mxPoint x="480" y="557" as="sourcePoint" />
            <mxPoint x="649" y="503" as="targetPoint" />
          </mxGeometry>
        </mxCell>
        <mxCell id="4WKVuVULbujf4S4X61hi-1" style="edgeStyle=orthogonalEdgeStyle;rounded=0;orthogonalLoop=1;jettySize=auto;html=1;entryX=0;entryY=0.5;entryDx=0;entryDy=0;exitX=0.966;exitY=0.497;exitDx=0;exitDy=0;exitPerimeter=0;" parent="PmAsDYt7ePFWswJWPdAt-1" source="4ZKNdrfmacIxx5nxEuMF-4" target="hnOc7kBfibrwKYlpnwC0-0" edge="1">
          <mxGeometry relative="1" as="geometry">
            <mxPoint x="532" y="664" as="sourcePoint" />
            <mxPoint x="700" y="553" as="targetPoint" />
          </mxGeometry>
        </mxCell>
        <mxCell id="4WKVuVULbujf4S4X61hi-2" style="edgeStyle=orthogonalEdgeStyle;rounded=0;orthogonalLoop=1;jettySize=auto;html=1;entryX=0;entryY=0.5;entryDx=0;entryDy=0;exitX=0.963;exitY=0.498;exitDx=0;exitDy=0;exitPerimeter=0;" parent="PmAsDYt7ePFWswJWPdAt-1" source="4ZKNdrfmacIxx5nxEuMF-4" target="D8R9sGTT4eO_Y8YIvJOX-7" edge="1">
          <mxGeometry relative="1" as="geometry">
            <mxPoint x="532" y="663" as="sourcePoint" />
            <mxPoint x="700" y="493" as="targetPoint" />
          </mxGeometry>
        </mxCell>
        <mxCell id="4WKVuVULbujf4S4X61hi-4" style="edgeStyle=orthogonalEdgeStyle;rounded=0;orthogonalLoop=1;jettySize=auto;html=1;entryX=0;entryY=0.5;entryDx=0;entryDy=0;exitX=0.946;exitY=0.496;exitDx=0;exitDy=0;exitPerimeter=0;" parent="PmAsDYt7ePFWswJWPdAt-1" source="4ZKNdrfmacIxx5nxEuMF-4" target="D8R9sGTT4eO_Y8YIvJOX-8" edge="1">
          <mxGeometry relative="1" as="geometry">
            <mxPoint x="532" y="639" as="sourcePoint" />
            <mxPoint x="700" y="673" as="targetPoint" />
          </mxGeometry>
        </mxCell>
        <mxCell id="4WKVuVULbujf4S4X61hi-5" style="edgeStyle=orthogonalEdgeStyle;rounded=0;orthogonalLoop=1;jettySize=auto;html=1;entryX=0;entryY=0.5;entryDx=0;entryDy=0;exitX=1.015;exitY=0.497;exitDx=0;exitDy=0;exitPerimeter=0;" parent="PmAsDYt7ePFWswJWPdAt-1" source="4ZKNdrfmacIxx5nxEuMF-4" target="FUw0geXapkJR7pa8jdJL-3" edge="1">
          <mxGeometry relative="1" as="geometry">
            <mxPoint x="610" y="770" as="sourcePoint" />
            <mxPoint x="700" y="735" as="targetPoint" />
          </mxGeometry>
        </mxCell>
        <mxCell id="4WKVuVULbujf4S4X61hi-6" style="edgeStyle=orthogonalEdgeStyle;rounded=0;orthogonalLoop=1;jettySize=auto;html=1;entryX=0;entryY=0.5;entryDx=0;entryDy=0;exitX=0.982;exitY=0.497;exitDx=0;exitDy=0;exitPerimeter=0;" parent="PmAsDYt7ePFWswJWPdAt-1" source="4ZKNdrfmacIxx5nxEuMF-4" target="FUw0geXapkJR7pa8jdJL-4" edge="1">
          <mxGeometry relative="1" as="geometry">
            <mxPoint x="536" y="705" as="sourcePoint" />
            <mxPoint x="700" y="793" as="targetPoint" />
          </mxGeometry>
        </mxCell>
        <mxCell id="4WKVuVULbujf4S4X61hi-7" style="edgeStyle=orthogonalEdgeStyle;rounded=0;orthogonalLoop=1;jettySize=auto;html=1;entryX=0;entryY=0.5;entryDx=0;entryDy=0;exitX=1.008;exitY=0.497;exitDx=0;exitDy=0;exitPerimeter=0;" parent="PmAsDYt7ePFWswJWPdAt-1" source="4ZKNdrfmacIxx5nxEuMF-4" target="FUw0geXapkJR7pa8jdJL-5" edge="1">
          <mxGeometry relative="1" as="geometry">
            <mxPoint x="533" y="705" as="sourcePoint" />
            <mxPoint x="700" y="853" as="targetPoint" />
          </mxGeometry>
        </mxCell>
        <mxCell id="4WKVuVULbujf4S4X61hi-8" style="edgeStyle=orthogonalEdgeStyle;rounded=0;orthogonalLoop=1;jettySize=auto;html=1;entryX=0;entryY=0.5;entryDx=0;entryDy=0;exitX=0.996;exitY=0.504;exitDx=0;exitDy=0;exitPerimeter=0;" parent="PmAsDYt7ePFWswJWPdAt-1" source="4ZKNdrfmacIxx5nxEuMF-0" target="5szykNnx05lKGsdo6Biz-0" edge="1">
          <mxGeometry relative="1" as="geometry">
            <mxPoint x="480" y="525.48" as="sourcePoint" />
            <mxPoint x="648" y="313.48" as="targetPoint" />
          </mxGeometry>
        </mxCell>
        <mxCell id="hYor6iIa-aKugMJ0ksJW-2" value="" style="image;aspect=fixed;html=1;points=[];align=center;fontSize=12;image=img/lib/azure2/general/File.svg;" parent="PmAsDYt7ePFWswJWPdAt-1" vertex="1">
          <mxGeometry x="508.12" y="400" width="32.46" height="40" as="geometry" />
        </mxCell>
        <mxCell id="4ZKNdrfmacIxx5nxEuMF-4" value="&lt;font style=&quot;font-size: 20px;&quot;&gt;&lt;b&gt;ERP&lt;/b&gt;&lt;/font&gt;" style="image;aspect=fixed;html=1;points=[];align=center;fontSize=12;image=img/lib/azure2/general/Folder_Blank.svg;" parent="PmAsDYt7ePFWswJWPdAt-1" vertex="1">
          <mxGeometry x="455.5" y="667" width="69" height="56.00000000000001" as="geometry" />
        </mxCell>
        <mxCell id="hYor6iIa-aKugMJ0ksJW-4" value="" style="image;aspect=fixed;html=1;points=[];align=center;fontSize=12;image=img/lib/azure2/general/File.svg;" parent="PmAsDYt7ePFWswJWPdAt-1" vertex="1">
          <mxGeometry x="508.12" y="695" width="32.46" height="40" as="geometry" />
        </mxCell>
        <mxCell id="ipXMxgDdtrbWBfYmq0OY-0" value="" style="rounded=1;whiteSpace=wrap;html=1;fillColor=#f5f5f5;strokeColor=#666666;fillStyle=hatch;arcSize=5;fontColor=#333333;" parent="PmAsDYt7ePFWswJWPdAt-1" vertex="1">
          <mxGeometry x="1002" y="341" width="247" height="630" as="geometry" />
        </mxCell>
        <mxCell id="ipXMxgDdtrbWBfYmq0OY-1" value="Silver Layer" style="rounded=1;whiteSpace=wrap;html=1;fillColor=#f5f5f5;strokeColor=#666666;fontSize=20;fontStyle=1;fontColor=#333333;" parent="PmAsDYt7ePFWswJWPdAt-1" vertex="1">
          <mxGeometry x="1002" y="281" width="247" height="50" as="geometry" />
        </mxCell>
        <mxCell id="fmiYCnDx6C7YxQS57Lym-15" style="edgeStyle=orthogonalEdgeStyle;rounded=0;orthogonalLoop=1;jettySize=auto;html=1;exitX=1;exitY=0.5;exitDx=0;exitDy=0;entryX=0;entryY=0.5;entryDx=0;entryDy=0;" parent="PmAsDYt7ePFWswJWPdAt-1" source="ipXMxgDdtrbWBfYmq0OY-2" target="fmiYCnDx6C7YxQS57Lym-2" edge="1">
          <mxGeometry relative="1" as="geometry" />
        </mxCell>
        <mxCell id="ipXMxgDdtrbWBfYmq0OY-2" value="crm_sales_orders" style="rounded=1;whiteSpace=wrap;html=1;fillColor=#f5f5f5;strokeColor=#666666;fontSize=16;fontStyle=0;fontColor=#333333;" parent="PmAsDYt7ePFWswJWPdAt-1" vertex="1">
          <mxGeometry x="1020.5" y="382" width="210" height="40" as="geometry" />
        </mxCell>
        <mxCell id="fmiYCnDx6C7YxQS57Lym-12" style="rounded=0;orthogonalLoop=1;jettySize=auto;html=1;exitX=1;exitY=0.5;exitDx=0;exitDy=0;entryX=0;entryY=0.5;entryDx=0;entryDy=0;strokeColor=default;" parent="PmAsDYt7ePFWswJWPdAt-1" source="ipXMxgDdtrbWBfYmq0OY-3" target="fmiYCnDx6C7YxQS57Lym-4" edge="1">
          <mxGeometry relative="1" as="geometry" />
        </mxCell>
        <mxCell id="ipXMxgDdtrbWBfYmq0OY-3" value="erp_addresses" style="rounded=1;whiteSpace=wrap;html=1;fillColor=#f5f5f5;strokeColor=#666666;fontSize=16;fontStyle=0;fontColor=#333333;" parent="PmAsDYt7ePFWswJWPdAt-1" vertex="1">
          <mxGeometry x="1019" y="464" width="210" height="40" as="geometry" />
        </mxCell>
        <mxCell id="fmiYCnDx6C7YxQS57Lym-13" style="rounded=0;orthogonalLoop=1;jettySize=auto;html=1;exitX=1;exitY=0.5;exitDx=0;exitDy=0;entryX=0;entryY=0.5;entryDx=0;entryDy=0;" parent="PmAsDYt7ePFWswJWPdAt-1" source="ipXMxgDdtrbWBfYmq0OY-4" target="fmiYCnDx6C7YxQS57Lym-4" edge="1">
          <mxGeometry relative="1" as="geometry" />
        </mxCell>
        <mxCell id="ipXMxgDdtrbWBfYmq0OY-4" value="erp_business_partners" style="rounded=1;whiteSpace=wrap;html=1;fillColor=#f5f5f5;strokeColor=#666666;fontSize=16;fontStyle=0;fontColor=#333333;" parent="PmAsDYt7ePFWswJWPdAt-1" vertex="1">
          <mxGeometry x="1019" y="524" width="210" height="40" as="geometry" />
        </mxCell>
        <mxCell id="fmiYCnDx6C7YxQS57Lym-14" style="edgeStyle=orthogonalEdgeStyle;rounded=0;orthogonalLoop=1;jettySize=auto;html=1;exitX=1;exitY=0.5;exitDx=0;exitDy=0;entryX=0;entryY=0.5;entryDx=0;entryDy=0;" parent="PmAsDYt7ePFWswJWPdAt-1" source="ipXMxgDdtrbWBfYmq0OY-5" target="fmiYCnDx6C7YxQS57Lym-5" edge="1">
          <mxGeometry relative="1" as="geometry" />
        </mxCell>
        <mxCell id="ipXMxgDdtrbWBfYmq0OY-5" value="erp_employees" style="rounded=1;whiteSpace=wrap;html=1;fillColor=#f5f5f5;strokeColor=#666666;fontSize=16;fontStyle=0;fontColor=#333333;" parent="PmAsDYt7ePFWswJWPdAt-1" vertex="1">
          <mxGeometry x="1019" y="584" width="210" height="40" as="geometry" />
        </mxCell>
        <mxCell id="fmiYCnDx6C7YxQS57Lym-17" style="rounded=0;orthogonalLoop=1;jettySize=auto;html=1;exitX=1;exitY=0.5;exitDx=0;exitDy=0;entryX=0;entryY=0.5;entryDx=0;entryDy=0;" parent="PmAsDYt7ePFWswJWPdAt-1" source="ipXMxgDdtrbWBfYmq0OY-6" target="fmiYCnDx6C7YxQS57Lym-6" edge="1">
          <mxGeometry relative="1" as="geometry" />
        </mxCell>
        <mxCell id="ipXMxgDdtrbWBfYmq0OY-6" value="erp_product_categories" style="rounded=1;whiteSpace=wrap;html=1;fillColor=#f5f5f5;strokeColor=#666666;fontSize=16;fontStyle=0;fontColor=#333333;" parent="PmAsDYt7ePFWswJWPdAt-1" vertex="1">
          <mxGeometry x="1019" y="644" width="210" height="40" as="geometry" />
        </mxCell>
        <mxCell id="fmiYCnDx6C7YxQS57Lym-18" style="rounded=0;orthogonalLoop=1;jettySize=auto;html=1;exitX=1;exitY=0.5;exitDx=0;exitDy=0;entryX=0;entryY=0.5;entryDx=0;entryDy=0;" parent="PmAsDYt7ePFWswJWPdAt-1" source="ipXMxgDdtrbWBfYmq0OY-7" target="fmiYCnDx6C7YxQS57Lym-6" edge="1">
          <mxGeometry relative="1" as="geometry">
            <mxPoint x="1310" y="779.9999999999998" as="targetPoint" />
          </mxGeometry>
        </mxCell>
        <mxCell id="ipXMxgDdtrbWBfYmq0OY-7" value="erp_product_category_text" style="rounded=1;whiteSpace=wrap;html=1;fillColor=#f5f5f5;strokeColor=#666666;fontSize=16;fontStyle=0;fontColor=#333333;" parent="PmAsDYt7ePFWswJWPdAt-1" vertex="1">
          <mxGeometry x="1019" y="706" width="210" height="40" as="geometry" />
        </mxCell>
        <mxCell id="fmiYCnDx6C7YxQS57Lym-19" style="rounded=0;orthogonalLoop=1;jettySize=auto;html=1;exitX=1;exitY=0.5;exitDx=0;exitDy=0;" parent="PmAsDYt7ePFWswJWPdAt-1" source="ipXMxgDdtrbWBfYmq0OY-8" target="fmiYCnDx6C7YxQS57Lym-6" edge="1">
          <mxGeometry relative="1" as="geometry" />
        </mxCell>
        <mxCell id="ipXMxgDdtrbWBfYmq0OY-8" value="erp_product_texts" style="rounded=1;whiteSpace=wrap;html=1;fillColor=#f5f5f5;strokeColor=#666666;fontSize=16;fontStyle=0;fontColor=#333333;" parent="PmAsDYt7ePFWswJWPdAt-1" vertex="1">
          <mxGeometry x="1019" y="764" width="210" height="40" as="geometry" />
        </mxCell>
        <mxCell id="fmiYCnDx6C7YxQS57Lym-20" style="rounded=0;orthogonalLoop=1;jettySize=auto;html=1;exitX=1;exitY=0.5;exitDx=0;exitDy=0;entryX=0;entryY=0.5;entryDx=0;entryDy=0;" parent="PmAsDYt7ePFWswJWPdAt-1" source="ipXMxgDdtrbWBfYmq0OY-9" target="fmiYCnDx6C7YxQS57Lym-6" edge="1">
          <mxGeometry relative="1" as="geometry">
            <mxPoint x="1290" y="819.9999999999998" as="targetPoint" />
          </mxGeometry>
        </mxCell>
        <mxCell id="ipXMxgDdtrbWBfYmq0OY-9" value="erp_products" style="rounded=1;whiteSpace=wrap;html=1;fillColor=#f5f5f5;strokeColor=#666666;fontSize=16;fontStyle=0;fontColor=#333333;" parent="PmAsDYt7ePFWswJWPdAt-1" vertex="1">
          <mxGeometry x="1019" y="824" width="210" height="40" as="geometry" />
        </mxCell>
        <mxCell id="fmiYCnDx6C7YxQS57Lym-16" style="rounded=0;orthogonalLoop=1;jettySize=auto;html=1;exitX=1;exitY=0.5;exitDx=0;exitDy=0;entryX=0;entryY=0.5;entryDx=0;entryDy=0;jumpStyle=gap;" parent="PmAsDYt7ePFWswJWPdAt-1" source="ipXMxgDdtrbWBfYmq0OY-10" target="fmiYCnDx6C7YxQS57Lym-2" edge="1">
          <mxGeometry relative="1" as="geometry">
            <mxPoint x="1290" y="440" as="targetPoint" />
          </mxGeometry>
        </mxCell>
        <mxCell id="ipXMxgDdtrbWBfYmq0OY-10" value="erp_sales_order_items" style="rounded=1;whiteSpace=wrap;html=1;fillColor=#f5f5f5;strokeColor=#666666;fontSize=16;fontStyle=0;fontColor=#333333;" parent="PmAsDYt7ePFWswJWPdAt-1" vertex="1">
          <mxGeometry x="1019" y="884" width="210" height="40" as="geometry" />
        </mxCell>
        <mxCell id="fmiYCnDx6C7YxQS57Lym-0" value="" style="rounded=1;whiteSpace=wrap;html=1;fillColor=#fff2cc;strokeColor=#d6b656;fillStyle=hatch;arcSize=5;" parent="PmAsDYt7ePFWswJWPdAt-1" vertex="1">
          <mxGeometry x="1330" y="341" width="247" height="630" as="geometry" />
        </mxCell>
        <mxCell id="fmiYCnDx6C7YxQS57Lym-1" value="Gold Layer" style="rounded=1;whiteSpace=wrap;html=1;fillColor=#fff2cc;strokeColor=#d6b656;fontSize=20;fontStyle=1;" parent="PmAsDYt7ePFWswJWPdAt-1" vertex="1">
          <mxGeometry x="1330" y="281" width="247" height="50" as="geometry" />
        </mxCell>
        <mxCell id="fmiYCnDx6C7YxQS57Lym-2" value="dim_sales" style="rounded=1;whiteSpace=wrap;html=1;fillColor=#fff2cc;strokeColor=#d6b656;fontSize=16;fontStyle=0;" parent="PmAsDYt7ePFWswJWPdAt-1" vertex="1">
          <mxGeometry x="1348.5" y="382" width="210" height="40" as="geometry" />
        </mxCell>
        <mxCell id="fmiYCnDx6C7YxQS57Lym-4" value="dim_business_partners" style="rounded=1;whiteSpace=wrap;html=1;fillColor=#fff2cc;strokeColor=#d6b656;fontSize=16;fontStyle=0;" parent="PmAsDYt7ePFWswJWPdAt-1" vertex="1">
          <mxGeometry x="1347" y="482" width="210" height="40" as="geometry" />
        </mxCell>
        <mxCell id="fmiYCnDx6C7YxQS57Lym-5" value="dim_employees" style="rounded=1;whiteSpace=wrap;html=1;fillColor=#fff2cc;strokeColor=#d6b656;fontSize=16;fontStyle=0;" parent="PmAsDYt7ePFWswJWPdAt-1" vertex="1">
          <mxGeometry x="1347" y="584" width="210" height="40" as="geometry" />
        </mxCell>
        <mxCell id="fmiYCnDx6C7YxQS57Lym-6" value="dim_products" style="rounded=1;whiteSpace=wrap;html=1;fillColor=#fff2cc;strokeColor=#d6b656;fontSize=16;fontStyle=0;" parent="PmAsDYt7ePFWswJWPdAt-1" vertex="1">
          <mxGeometry x="1347" y="764" width="210" height="40" as="geometry" />
        </mxCell>
        <mxCell id="xPJE5sZ-C0XEvup7ulEN-0" value="dim_date" style="rounded=1;whiteSpace=wrap;html=1;fillColor=#fff2cc;strokeColor=#d6b656;fontSize=16;fontStyle=0;" vertex="1" parent="PmAsDYt7ePFWswJWPdAt-1">
          <mxGeometry x="1347" y="669" width="210" height="40" as="geometry" />
        </mxCell>
      </root>
    </mxGraphModel>
  </diagram>
</mxfile>
